<?xml version="1.0" standalone="no"?>
<!DOCTYPE svg PUBLIC "-//W3C//DTD SVG 20010904//EN"
 "http://www.w3.org/TR/2001/REC-SVG-20010904/DTD/svg10.dtd">
<svg version="1.0" xmlns="http://www.w3.org/2000/svg"
 width="260.000000pt" height="260.000000pt" viewBox="0 0 260.000000 260.000000"
 preserveAspectRatio="xMidYMid meet">
<metadata>
Created by potrace 1.11, written by Peter Selinger 2001-2013
</metadata>
<g transform="translate(0.000000,260.000000) scale(0.100000,-0.100000)"
fill="#000000" stroke="none">
<path d="M1420 2502 c-55 -6 -98 -23 -103 -41 -2 -10 -5 -263 -5 -562 0 -299
-1 -548 -2 -554 0 -5 0 -95 1 -200 3 -434 0 -501 -28 -585 -47 -142 -209 -171
-399 -71 -64 34 -87 30 -105 -17 -14 -36 -6 -181 11 -209 18 -28 69 -56 145
-79 46 -14 91 -18 190 -18 119 1 136 3 200 29 80 32 82 33 151 102 58 56 105
146 119 228 2 17 8 41 12 55 11 40 14 1869 3 1890 -12 22 -119 40 -190 32z"/>
</g>
</svg>
